<?xml version="1.0" encoding="UTF-8" standalone="no"?>
<svg
   style="font-style:normal;font-weight:normal;font-size:12px;font-family:Dialog;color-interpolation:auto;fill:#000000;fill-opacity:1;stroke:#000000;stroke-width:1;stroke-linecap:square;stroke-linejoin:miter;stroke-miterlimit:10;stroke-dasharray:none;stroke-dashoffset:0;stroke-opacity:1;color-rendering:auto;image-rendering:auto;shape-rendering:auto;text-rendering:auto"
   width="1301.9659"
   height="443.21552"
   version="1.1"
   id="svg6690"
   sodipodi:docname="PCs.svg"
   inkscape:export-filename="PCs.png"
   inkscape:export-xdpi="93.8844"
   inkscape:export-ydpi="93.8844"
   inkscape:version="1.2.2 (1:1.2.2+202212051550+b0a8486541)"
   xmlns:inkscape="http://www.inkscape.org/namespaces/inkscape"
   xmlns:sodipodi="http://sodipodi.sourceforge.net/DTD/sodipodi-0.dtd"
   xmlns="http://www.w3.org/2000/svg"
   xmlns:svg="http://www.w3.org/2000/svg">
  <sodipodi:namedview
     id="namedview6692"
     pagecolor="#ffffff"
     bordercolor="#666666"
     borderopacity="1.0"
     inkscape:showpageshadow="2"
     inkscape:pageopacity="0.0"
     inkscape:pagecheckerboard="0"
     inkscape:deskcolor="#d1d1d1"
     showgrid="false"
     inkscape:zoom="0.82723834"
     inkscape:cx="503.48247"
     inkscape:cy="229.07546"
     inkscape:window-width="1920"
     inkscape:window-height="1068"
     inkscape:window-x="1920"
     inkscape:window-y="27"
     inkscape:window-maximized="1"
     inkscape:current-layer="svg6690" />
  <!--Generated by the Batik Graphics2D SVG Generator-->
  <defs
     id="genericDefs">
    <defs
       id="defs1">
      <clipPath
         clipPathUnits="userSpaceOnUse"
         id="clipPath1">
        <path
           d="M 0,0 H 1586 V 466 H 0 Z"
           id="path6514" />
      </clipPath>
    </defs>
  </defs>
  <g
     style="color-interpolation:linearRGB;fill:#262626;stroke:#262626;stroke-width:0.6667;stroke-linejoin:round;color-rendering:optimizeQuality;image-rendering:optimizeQuality;text-rendering:geometricPrecision"
     id="g6544"
     transform="translate(-156.7812,-5.1595)">
    <line
       y2="415"
       style="fill:none"
       x1="206"
       x2="1435"
       y1="415"
       id="line6528" />
    <line
       y2="42"
       style="fill:none"
       x1="206"
       x2="1435"
       y1="42"
       id="line6530" />
    <line
       y2="402.70999"
       style="fill:none"
       x1="206"
       x2="206"
       y1="415"
       id="line6532" />
    <line
       y2="402.70999"
       style="fill:none"
       x1="818.77869"
       x2="818.77869"
       y1="415"
       id="line6534" />
    <line
       y2="402.70999"
       style="fill:none"
       x1="1435"
       x2="1435"
       y1="415"
       id="line6536" />
    <line
       y2="54.290001"
       style="fill:none"
       x1="206"
       x2="206"
       y1="42"
       id="line6538" />
    <line
       y2="54.290001"
       style="fill:none"
       x1="818.77869"
       x2="818.77869"
       y1="42"
       id="line6540" />
    <line
       y2="54.290001"
       style="fill:none"
       x1="1435"
       x2="1435"
       y1="42"
       id="line6542" />
  </g>
  <g
     transform="translate(49.2188,417.8405)"
     style="font-size:26.6667px;font-family:SansSerif;color-interpolation:linearRGB;fill:#262626;stroke:#262626;color-rendering:optimizeQuality;image-rendering:optimizeQuality;text-rendering:geometricPrecision"
     id="g6548">
    <path
       style="stroke:none"
       d="m -5.1562,22.7656 h 4.3593 V 7.75 L -5.5312,8.6875 V 6.2656 L -0.8281,5.3125 H 1.8438 V 22.7656 H 6.1875 V 25 H -5.1562 Z"
       id="path6546" />
  </g>
  <g
     transform="translate(661.9975,417.8405)"
     style="font-size:26.6667px;font-family:SansSerif;color-interpolation:linearRGB;fill:#262626;stroke:#262626;color-rendering:optimizeQuality;image-rendering:optimizeQuality;text-rendering:geometricPrecision"
     id="g6552">
    <path
       style="stroke:none"
       d="m -22.1562,22.7656 h 4.3593 V 7.75 l -4.7343,0.9375 V 6.2656 l 4.7031,-0.9531 h 2.6719 v 17.4531 h 4.3437 V 25 H -22.1562 Z M -6.3217,5.3125 H 6.3345 V 6.4531 L -0.8217,25 H -3.603 L 3.1314,7.5625 h -9.4531 z m 17.7095,19.2813 v -2.4219 q 1,0.4687 2.0312,0.7187 1.0313,0.25 2.0157,0.25 2.6406,0 4.0312,-1.7734 1.3906,-1.7734 1.5781,-5.3828 -0.7656,1.125 -1.9375,1.7344 -1.1718,0.6093 -2.5937,0.6093 -2.9531,0 -4.6719,-1.789 -1.7187,-1.7891 -1.7187,-4.8829 0,-3.0312 1.789,-4.8671 1.7891,-1.836 4.7735,-1.836 3.4218,0 5.2187,2.6172 1.7969,2.6172 1.7969,7.6016 0,4.6562 -2.211,7.4297 -2.2109,2.7734 -5.9453,2.7734 -1,0 -2.0234,-0.1953 -1.0234,-0.1953 -2.1328,-0.5859 z M 16.6847,16.25 q 1.7968,0 2.8437,-1.2266 1.0469,-1.2265 1.0469,-3.3672 0,-2.125 -1.0469,-3.3593 -1.0469,-1.2344 -2.8437,-1.2344 -1.7969,0 -2.8438,1.2344 -1.0469,1.2343 -1.0469,3.3593 0,2.1407 1.0469,3.3672 1.0469,1.2266 2.8438,1.2266 z"
       id="path6550" />
  </g>
  <g
     transform="translate(1278.2188,417.8405)"
     style="font-size:26.6667px;font-family:SansSerif;color-interpolation:linearRGB;fill:#262626;stroke:#262626;color-rendering:optimizeQuality;image-rendering:optimizeQuality;text-rendering:geometricPrecision"
     id="g6556">
    <path
       style="stroke:none"
       d="m -14.5469,14.3906 q 1.9219,0.4063 2.9922,1.6953 1.0703,1.2891 1.0703,3.1953 0,2.9063 -2,4.5 -2,1.5938 -5.7031,1.5938 -1.2344,0 -2.5469,-0.2422 -1.3125,-0.2422 -2.7031,-0.7266 v -2.5781 q 1.1094,0.6563 2.4219,0.9844 1.3125,0.3281 2.75,0.3281 2.5156,0 3.8203,-0.9922 1.3047,-0.9922 1.3047,-2.8672 0,-1.75 -1.2188,-2.7265 -1.2187,-0.9766 -3.3906,-0.9766 h -2.2969 v -2.1875 h 2.4063 q 1.9687,0 3.0078,-0.789 1.039,-0.7891 1.039,-2.2578 0,-1.5157 -1.0781,-2.3282 -1.0781,-0.8125 -3.0781,-0.8125 -1.0938,0 -2.3438,0.2344 -1.25,0.2344 -2.75,0.7344 v -2.375 q 1.5157,-0.4219 2.836,-0.6328 1.3203,-0.211 2.4922,-0.211 3.0312,0 4.8047,1.3828 1.7734,1.3829 1.7734,3.7266 0,1.6406 -0.9375,2.7656 -0.9375,1.125 -2.6719,1.5625 z M -5.6342,5.3125 H 4.8345 v 2.25 h -8.0156 v 4.8281 q 0.5781,-0.2031 1.1562,-0.3047 0.5782,-0.1015 1.1563,-0.1015 3.2969,0 5.2187,1.8047 1.9219,1.8047 1.9219,4.8984 0,3.1719 -1.9765,4.9297 -1.9766,1.7578 -5.5704,1.7578 -1.2343,0 -2.5234,-0.2109 -1.2891,-0.211 -2.6641,-0.6329 v -2.6718 q 1.1875,0.6562 2.4532,0.9687 1.2656,0.3125 2.6875,0.3125 2.2812,0 3.6093,-1.2031 1.3282,-1.2031 1.3282,-3.25 0,-2.0625 -1.3282,-3.2578 -1.3281,-1.1953 -3.6093,-1.1953 -1.0782,0 -2.1407,0.2344 -1.0625,0.2343 -2.1718,0.7343 z m 22.6314,10.3437 q -1.8907,0 -2.9766,1.0157 -1.0859,1.0156 -1.0859,2.7969 0,1.7812 1.0859,2.789 1.0859,1.0078 2.9766,1.0078 1.9062,0 3,-1.0156 1.0937,-1.0156 1.0937,-2.7812 0,-1.7813 -1.0859,-2.7969 -1.086,-1.0157 -3.0078,-1.0157 z M 14.3409,14.5156 Q 12.6222,14.0938 11.669,12.9219 10.7159,11.75 10.7159,10.0625 q 0,-2.3594 1.6797,-3.7344 1.6797,-1.375 4.6016,-1.375 2.9375,0 4.6171,1.375 1.6797,1.375 1.6797,3.7344 0,1.6875 -0.9609,2.8594 -0.9609,1.1719 -2.6484,1.5937 1.9218,0.4532 2.9921,1.7578 1.0704,1.3047 1.0704,3.1954 0,2.8593 -1.7422,4.3828 -1.7422,1.5234 -5.0078,1.5234 -3.25,0 -5,-1.5234 -1.75,-1.5235 -1.75,-4.3828 0,-1.8907 1.0859,-3.1954 1.0859,-1.3046 3.0078,-1.7578 z m -0.9844,-4.2031 q 0,1.5313 0.961,2.3906 0.9609,0.8594 2.6797,0.8594 1.7187,0 2.6875,-0.8594 0.9687,-0.8593 0.9687,-2.3906 0,-1.5313 -0.9687,-2.3906 -0.9688,-0.8594 -2.6875,-0.8594 -1.7188,0 -2.6797,0.8594 -0.961,0.8593 -0.961,2.3906 z"
       id="path6554" />
  </g>
  <g
     style="color-interpolation:linearRGB;fill:#262626;stroke:#262626;stroke-width:0.6667;stroke-linejoin:round;color-rendering:optimizeQuality;image-rendering:optimizeQuality;text-rendering:geometricPrecision"
     id="g6586"
     transform="translate(-156.7812,-5.1595)">
    <line
       y2="42"
       style="fill:none"
       x1="206"
       x2="206"
       y1="415"
       id="line6558" />
    <line
       y2="42"
       style="fill:none"
       x1="1435"
       x2="1435"
       y1="415"
       id="line6560" />
    <line
       y2="415"
       style="fill:none"
       x1="206"
       x2="218.28999"
       y1="415"
       id="line6562" />
    <line
       y2="340.39999"
       style="fill:none"
       x1="206"
       x2="218.28999"
       y1="340.39999"
       id="line6564" />
    <line
       y2="265.79999"
       style="fill:none"
       x1="206"
       x2="218.28999"
       y1="265.79999"
       id="line6566" />
    <line
       y2="191.2"
       style="fill:none"
       x1="206"
       x2="218.28999"
       y1="191.2"
       id="line6568" />
    <line
       y2="116.6"
       style="fill:none"
       x1="206"
       x2="218.28999"
       y1="116.6"
       id="line6570" />
    <line
       y2="42"
       style="fill:none"
       x1="206"
       x2="218.28999"
       y1="42"
       id="line6572" />
    <line
       y2="415"
       style="fill:none"
       x1="1435"
       x2="1422.71"
       y1="415"
       id="line6574" />
    <line
       y2="340.39999"
       style="fill:none"
       x1="1435"
       x2="1422.71"
       y1="340.39999"
       id="line6576" />
    <line
       y2="265.79999"
       style="fill:none"
       x1="1435"
       x2="1422.71"
       y1="265.79999"
       id="line6578" />
    <line
       y2="191.2"
       style="fill:none"
       x1="1435"
       x2="1422.71"
       y1="191.2"
       id="line6580" />
    <line
       y2="116.6"
       style="fill:none"
       x1="1435"
       x2="1422.71"
       y1="116.6"
       id="line6582" />
    <line
       y2="42"
       style="fill:none"
       x1="1435"
       x2="1422.71"
       y1="42"
       id="line6584" />
  </g>
  <g
     transform="translate(41.2188,409.8405)"
     style="font-size:26.6667px;font-family:SansSerif;color-interpolation:linearRGB;fill:#262626;stroke:#262626;color-rendering:optimizeQuality;image-rendering:optimizeQuality;text-rendering:geometricPrecision"
     id="g6590">
    <path
       style="stroke:none"
       d="m -8.4219,-8.9375 q -2.0469,0 -3.0859,2.0313 -1.0391,2.0312 -1.0391,6.0781 0,4.0469 1.0391,6.0703 1.039,2.0234 3.0859,2.0234 2.0781,0 3.1094,-2.0234 1.0313,-2.0234 1.0313,-6.0703 0,-4.0469 -1.0313,-6.0781 -1.0313,-2.0313 -3.1094,-2.0313 z m 0,-2.1094 q 3.3125,0 5.0625,2.6172 1.75,2.6172 1.75,7.6016 0,4.9687 -1.75,7.5859 -1.75,2.6172 -5.0625,2.6172 -3.2969,0 -5.0469,-2.6172 -1.75,-2.6172 -1.75,-7.5859 0,-4.9844 1.75,-7.6016 1.75,-2.6172 5.0469,-2.6172 z"
       id="path6588" />
  </g>
  <g
     transform="translate(41.2188,335.2405)"
     style="font-size:26.6667px;font-family:SansSerif;color-interpolation:linearRGB;fill:#262626;stroke:#262626;color-rendering:optimizeQuality;image-rendering:optimizeQuality;text-rendering:geometricPrecision"
     id="g6594">
    <path
       style="stroke:none"
       d="m -34.4219,-8.9375 q -2.0469,0 -3.0859,2.0313 -1.0391,2.0312 -1.0391,6.0781 0,4.0469 1.0391,6.0703 1.039,2.0234 3.0859,2.0234 2.0781,0 3.1094,-2.0234 1.0313,-2.0234 1.0313,-6.0703 0,-4.0469 -1.0313,-6.0781 -1.0313,-2.0313 -3.1094,-2.0313 z m 0,-2.1094 q 3.3125,0 5.0625,2.6172 1.75,2.6172 1.75,7.6016 0,4.9687 -1.75,7.5859 -1.75,2.6172 -5.0625,2.6172 -3.2969,0 -5.0469,-2.6172 -1.75,-2.6172 -1.75,-7.5859 0,-4.9844 1.75,-7.6016 1.75,-2.6172 5.0469,-2.6172 z m 11.272,16.7031 h 2.7813 V 9 h -2.7813 z m 10.7702,1.1094 h 9.2812 V 9 H -15.5829 V 6.7656 q 1.5157,-1.5781 4.1329,-4.2187 2.6171,-2.6407 3.289,-3.4063 1.2656,-1.4375 1.7735,-2.4375 0.5078,-1 0.5078,-1.9531 0,-1.5781 -1.0938,-2.5625 -1.0937,-0.9844 -2.875,-0.9844 -1.25,0 -2.6406,0.4375 -1.3906,0.4375 -2.9688,1.3125 v -2.6875 q 1.6094,-0.6406 3.0079,-0.9765 1.3984,-0.336 2.5546,-0.336 3.0625,0 4.8829,1.5313 1.8203,1.5312 1.8203,4.0937 0,1.2188 -0.461,2.3047 -0.4609,1.086 -1.6484,2.5547 -0.3281,0.3906 -2.1016,2.2109 -1.7734,1.8204 -4.9765,5.1172 z"
       id="path6592" />
  </g>
  <g
     transform="translate(41.2188,260.6405)"
     style="font-size:26.6667px;font-family:SansSerif;color-interpolation:linearRGB;fill:#262626;stroke:#262626;color-rendering:optimizeQuality;image-rendering:optimizeQuality;text-rendering:geometricPrecision"
     id="g6598">
    <path
       style="stroke:none"
       d="m -34.4219,-8.9375 q -2.0469,0 -3.0859,2.0313 -1.0391,2.0312 -1.0391,6.0781 0,4.0469 1.0391,6.0703 1.039,2.0234 3.0859,2.0234 2.0781,0 3.1094,-2.0234 1.0313,-2.0234 1.0313,-6.0703 0,-4.0469 -1.0313,-6.0781 -1.0313,-2.0313 -3.1094,-2.0313 z m 0,-2.1094 q 3.3125,0 5.0625,2.6172 1.75,2.6172 1.75,7.6016 0,4.9687 -1.75,7.5859 -1.75,2.6172 -5.0625,2.6172 -3.2969,0 -5.0469,-2.6172 -1.75,-2.6172 -1.75,-7.5859 0,-4.9844 1.75,-7.6016 1.75,-2.6172 5.0469,-2.6172 z m 11.272,16.7031 h 2.7813 V 9 h -2.7813 z m 15.7858,-14.0156 -6.7188,10.5 h 6.7188 z m -0.7031,-2.3281 h 3.3593 V 2.1406 H -1.911 V 4.3594 H -4.7079 V 9 H -7.3641 V 4.3594 h -8.8906 V 1.7812 Z"
       id="path6596" />
  </g>
  <g
     transform="translate(41.2188,186.0405)"
     style="font-size:26.6667px;font-family:SansSerif;color-interpolation:linearRGB;fill:#262626;stroke:#262626;color-rendering:optimizeQuality;image-rendering:optimizeQuality;text-rendering:geometricPrecision"
     id="g6602">
    <path
       style="stroke:none"
       d="m -34.4219,-8.9375 q -2.0469,0 -3.0859,2.0313 -1.0391,2.0312 -1.0391,6.0781 0,4.0469 1.0391,6.0703 1.039,2.0234 3.0859,2.0234 2.0781,0 3.1094,-2.0234 1.0313,-2.0234 1.0313,-6.0703 0,-4.0469 -1.0313,-6.0781 -1.0313,-2.0313 -3.1094,-2.0313 z m 0,-2.1094 q 3.3125,0 5.0625,2.6172 1.75,2.6172 1.75,7.6016 0,4.9687 -1.75,7.5859 -1.75,2.6172 -5.0625,2.6172 -3.2969,0 -5.0469,-2.6172 -1.75,-2.6172 -1.75,-7.5859 0,-4.9844 1.75,-7.6016 1.75,-2.6172 5.0469,-2.6172 z m 11.272,16.7031 h 2.7813 V 9 h -2.7813 z M -8.661,-1.9062 q -1.7812,0 -2.8359,1.2265 -1.0547,1.2266 -1.0547,3.3672 0,2.125 1.0547,3.3516 1.0547,1.2265 2.8359,1.2265 1.7969,0 2.8438,-1.2265 1.0468,-1.2266 1.0468,-3.3516 0,-2.1406 -1.0468,-3.3672 -1.0469,-1.2265 -2.8438,-1.2265 z m 5.2969,-8.3438 v 2.4219 q -1,-0.4688 -2.0234,-0.7188 -1.0235,-0.25 -2.0235,-0.25 -2.6406,0 -4.0312,1.7813 -1.3907,1.7812 -1.5938,5.375 0.7813,-1.1406 1.9531,-1.7578 1.1719,-0.6172 2.5938,-0.6172 2.9531,0 4.6797,1.8047 1.7265,1.8047 1.7265,4.8984 0,3.0313 -1.7968,4.8594 -1.7969,1.8281 -4.7813,1.8281 -3.4062,0 -5.2109,-2.6172 -1.8047,-2.6172 -1.8047,-7.5859 0,-4.6563 2.2109,-7.4375 2.211,-2.7813 5.9453,-2.7813 1,0 2.0235,0.2031 1.0234,0.2032 2.1328,0.5938 z"
       id="path6600" />
  </g>
  <g
     transform="translate(41.2188,111.4405)"
     style="font-size:26.6667px;font-family:SansSerif;color-interpolation:linearRGB;fill:#262626;stroke:#262626;color-rendering:optimizeQuality;image-rendering:optimizeQuality;text-rendering:geometricPrecision"
     id="g6606">
    <path
       style="stroke:none"
       d="m -34.4219,-8.9375 q -2.0469,0 -3.0859,2.0313 -1.0391,2.0312 -1.0391,6.0781 0,4.0469 1.0391,6.0703 1.039,2.0234 3.0859,2.0234 2.0781,0 3.1094,-2.0234 1.0313,-2.0234 1.0313,-6.0703 0,-4.0469 -1.0313,-6.0781 -1.0313,-2.0313 -3.1094,-2.0313 z m 0,-2.1094 q 3.3125,0 5.0625,2.6172 1.75,2.6172 1.75,7.6016 0,4.9687 -1.75,7.5859 -1.75,2.6172 -5.0625,2.6172 -3.2969,0 -5.0469,-2.6172 -1.75,-2.6172 -1.75,-7.5859 0,-4.9844 1.75,-7.6016 1.75,-2.6172 5.0469,-2.6172 z m 11.272,16.7031 h 2.7813 V 9 h -2.7813 z m 14.1608,-6 q -1.8906,0 -2.9766,1.0157 -1.0859,1.0156 -1.0859,2.7969 0,1.7812 1.0859,2.789 1.086,1.0078 2.9766,1.0078 1.9062,0 3,-1.0156 1.0937,-1.0156 1.0937,-2.7812 0,-1.7813 -1.0859,-2.7969 -1.0859,-1.0157 -3.0078,-1.0157 z m -2.6563,-1.1406 q -1.7187,-0.4218 -2.6718,-1.5937 -0.9532,-1.1719 -0.9532,-2.8594 0,-2.3594 1.6797,-3.7344 1.6797,-1.375 4.6016,-1.375 2.9375,0 4.6172,1.375 1.6797,1.375 1.6797,3.7344 0,1.6875 -0.961,2.8594 -0.9609,1.1719 -2.6484,1.5937 1.9219,0.4532 2.9922,1.7578 1.0703,1.3047 1.0703,3.1954 0,2.8593 -1.7422,4.3828 -1.7422,1.5234 -5.0078,1.5234 -3.25,0 -5,-1.5234 -1.75,-1.5235 -1.75,-4.3828 0,-1.8907 1.0859,-3.1954 1.086,-1.3046 3.0078,-1.7578 z m -0.9843,-4.2031 q 0,1.5313 0.9609,2.3906 0.9609,0.8594 2.6797,0.8594 1.7187,0 2.6875,-0.8594 0.9687,-0.8593 0.9687,-2.3906 0,-1.5313 -0.9687,-2.3906 -0.9688,-0.8594 -2.6875,-0.8594 -1.7188,0 -2.6797,0.8594 -0.9609,0.8593 -0.9609,2.3906 z"
       id="path6604" />
  </g>
  <g
     transform="translate(41.2188,36.8405)"
     style="font-size:26.6667px;font-family:SansSerif;color-interpolation:linearRGB;fill:#262626;stroke:#262626;color-rendering:optimizeQuality;image-rendering:optimizeQuality;text-rendering:geometricPrecision"
     id="g6610">
    <path
       style="stroke:none"
       d="m -13.6562,6.7656 h 4.3593 V -8.25 l -4.7343,0.9375 v -2.4219 l 4.7031,-0.9531 h 2.6719 V 6.7656 h 4.3437 V 9 h -11.3437 z"
       id="path6608" />
  </g>
  <g
     transform="translate(663.7196,31.3257)"
     style="font-size:29.3333px;font-family:mwa_cmr10;color-interpolation:linearRGB;color-rendering:optimizeQuality;image-rendering:optimizeQuality;text-rendering:geometricPrecision"
     id="g6680">
    <path
       style="stroke:none"
       d="m -288.6394,-13.6539 q 1,1.25 2.4843,1.9844 1.4844,0.7344 3.0782,0.7344 1.3437,0 2.4922,-0.5313 1.1484,-0.5312 2.0078,-1.4843 0.8593,-0.9532 1.3203,-2.1563 0.4609,-1.2031 0.4609,-2.5312 0,-0.2344 0.25,-0.2344 h 0.3594 q 0.2187,0 0.2187,0.2812 0,1.5157 -0.5781,2.9297 -0.5781,1.4141 -1.6406,2.4844 -1.0625,1.0703 -2.4453,1.6641 -1.3828,0.5937 -2.8828,0.5937 -2.0782,0 -3.9375,-0.8437 -1.8594,-0.8438 -3.2422,-2.3125 -1.3828,-1.4688 -2.1563,-3.3907 -0.7734,-1.9218 -0.7734,-4 0,-2.0937 0.7734,-4.0156 0.7735,-1.9219 2.1563,-3.3984 1.3828,-1.4766 3.2422,-2.3047 1.8593,-0.8281 3.9375,-0.8281 1.4843,0 2.8437,0.6484 1.3594,0.6484 2.3906,1.8203 l 1.6875,-2.375 q 0.1563,-0.0937 0.1875,-0.0937 h 0.2188 q 0.0781,0 0.1484,0.0703 0.0703,0.0703 0.0703,0.1797 v 7.8281 q 0,0.25 -0.2187,0.25 h -0.5313 q -0.2656,0 -0.2656,-0.25 0,-0.8438 -0.3359,-1.875 -0.336,-1.0313 -0.8516,-1.9609 -0.5156,-0.9297 -1.1875,-1.6329 -1.625,-1.5781 -3.7344,-1.5781 -1.6093,0 -3.0703,0.7188 -1.4609,0.7187 -2.4765,2 -1.0625,1.3593 -1.4688,3.0937 -0.4062,1.7344 -0.4062,3.7031 0,1.9688 0.4062,3.711 0.4063,1.7422 1.4688,3.1015 z"
       id="path6612" />
    <path
       style="stroke:none"
       d="m -273.2042,-10.5601 v -1.0156 q 1,0 1.6328,-0.1563 0.6328,-0.1562 0.6328,-0.7656 v -15.2188 q 0,-0.7812 -0.2344,-1.1328 -0.2343,-0.3515 -0.6718,-0.4297 -0.4375,-0.0781 -1.3594,-0.0781 v -1.0156 l 4.3125,-0.3125 v 9.9687 q 0.6094,-1.2031 1.6953,-1.9296 1.0859,-0.7266 2.4141,-0.7266 2,0 3.0156,0.9609 1.0156,0.961 1.0156,2.9453 v 6.9688 q 0,0.6094 0.6328,0.7656 0.6328,0.1563 1.6328,0.1563 v 1.0156 h -6.6406 v -1.0156 q 0.9844,0 1.625,-0.1563 0.6406,-0.1562 0.6406,-0.7656 v -6.8906 q 0,-1.4063 -0.414,-2.3203 -0.4141,-0.9141 -1.6797,-0.9141 -1.6875,0 -2.7735,1.3437 -1.0859,1.3438 -1.0859,3.0625 v 5.7188 q 0,0.6094 0.6406,0.7656 0.6407,0.1563 1.6094,0.1563 v 1.0156 z"
       id="path6614" />
    <path
       style="stroke:none"
       d="m -257.0172,-10.5601 v -1.0156 q 0.9843,0 1.625,-0.1563 0.6406,-0.1562 0.6406,-0.7656 v -7.9219 q 0,-0.7812 -0.2344,-1.125 -0.2344,-0.3437 -0.6719,-0.4219 -0.4375,-0.0781 -1.3593,-0.0781 v -1.0156 l 4.1562,-0.3125 v 2.8281 q 0.4531,-1.2656 1.3203,-2.0469 0.8672,-0.7812 2.1016,-0.7812 0.8594,0 1.539,0.5078 0.6797,0.5078 0.6797,1.3516 0,0.5156 -0.375,0.9062 -0.375,0.3906 -0.9218,0.3906 -0.5469,0 -0.9297,-0.3828 -0.3828,-0.3828 -0.3828,-0.914 0,-0.7813 0.5625,-1.1094 h -0.1719 q -1.1719,0 -1.9141,0.8516 -0.7422,0.8515 -1.0547,2.1093 -0.3125,1.2578 -0.3125,2.3985 v 4.7656 q 0,0.9219 2.8125,0.9219 v 1.0156 z"
       id="path6616" />
    <path
       style="stroke:none"
       d="m -244.8409,-10.5601 v -0.7813 q 0,-0.0625 0.0625,-0.1562 l 4.5,-4.9844 q 1.0313,-1.1094 1.6641,-1.8594 0.6328,-0.75 1.2578,-1.7265 0.625,-0.9766 0.9844,-1.9844 0.3594,-1.0078 0.3594,-2.1484 0,-1.1875 -0.4375,-2.2735 -0.4375,-1.0859 -1.3125,-1.7343 -0.875,-0.6485 -2.0938,-0.6485 -1.2656,0 -2.2734,0.7578 -1.0078,0.7578 -1.4141,1.961 0.1094,-0.0313 0.3125,-0.0313 0.6563,0 1.1094,0.4375 0.4531,0.4375 0.4531,1.1406 0,0.6563 -0.4531,1.1172 -0.4531,0.461 -1.1094,0.461 -0.6875,0 -1.1484,-0.4688 -0.461,-0.4687 -0.461,-1.1094 0,-1.0937 0.4141,-2.0468 0.4141,-0.9532 1.1875,-1.6953 0.7734,-0.7422 1.7422,-1.1407 0.9687,-0.3984 2.0625,-0.3984 1.6562,0 3.0859,0.7031 1.4297,0.7031 2.2657,1.9844 0.8359,1.2812 0.8359,2.9844 0,1.2656 -0.5547,2.3984 -0.5547,1.1328 -1.4141,2.0625 -0.8593,0.9297 -2.2109,2.1016 -1.3516,1.1718 -1.7734,1.5625 l -3.2813,3.1718 h 2.7813 q 2.0625,0 3.4453,-0.039 1.3828,-0.0391 1.4609,-0.1172 0.3438,-0.3594 0.6875,-2.6719 h 0.8594 l -0.8281,5.1719 z"
       id="path6618" />
    <path
       style="stroke:none"
       d="m -230.1741,-10.5601 v -0.7813 q 0,-0.0625 0.0625,-0.1562 l 4.5,-4.9844 q 1.0312,-1.1094 1.664,-1.8594 0.6328,-0.75 1.2578,-1.7265 0.625,-0.9766 0.9844,-1.9844 0.3594,-1.0078 0.3594,-2.1484 0,-1.1875 -0.4375,-2.2735 -0.4375,-1.0859 -1.3125,-1.7343 -0.875,-0.6485 -2.0938,-0.6485 -1.2656,0 -2.2734,0.7578 -1.0078,0.7578 -1.4141,1.961 0.1094,-0.0313 0.3125,-0.0313 0.6563,0 1.1094,0.4375 0.4531,0.4375 0.4531,1.1406 0,0.6563 -0.4531,1.1172 -0.4531,0.461 -1.1094,0.461 -0.6875,0 -1.1484,-0.4688 -0.4609,-0.4687 -0.4609,-1.1094 0,-1.0937 0.414,-2.0468 0.4141,-0.9532 1.1875,-1.6953 0.7735,-0.7422 1.7422,-1.1407 0.9688,-0.3984 2.0625,-0.3984 1.6563,0 3.086,0.7031 1.4296,0.7031 2.2656,1.9844 0.8359,1.2812 0.8359,2.9844 0,1.2656 -0.5547,2.3984 -0.5547,1.1328 -1.414,2.0625 -0.8594,0.9297 -2.211,2.1016 -1.3515,1.1718 -1.7734,1.5625 l -3.2813,3.1718 h 2.7813 q 2.0625,0 3.4453,-0.039 1.3828,-0.0391 1.4609,-0.1172 0.3438,-0.3594 0.6875,-2.6719 h 0.8594 l -0.8281,5.1719 z"
       id="path6620" />
    <path
       style="stroke:none"
       d="m -206.4172,-10.5601 v -1.0156 q 0.9844,0 1.625,-0.1563 0.6407,-0.1562 0.6407,-0.7656 v -7.9219 q 0,-0.7812 -0.2344,-1.125 -0.2344,-0.3437 -0.6719,-0.4219 -0.4375,-0.0781 -1.3594,-0.0781 v -1.0156 l 4.1563,-0.3125 v 2.8281 q 0.4531,-1.2656 1.3203,-2.0469 0.8672,-0.7812 2.1016,-0.7812 0.8593,0 1.539,0.5078 0.6797,0.5078 0.6797,1.3516 0,0.5156 -0.375,0.9062 -0.375,0.3906 -0.9219,0.3906 -0.5468,0 -0.9296,-0.3828 -0.3829,-0.3828 -0.3829,-0.914 0,-0.7813 0.5625,-1.1094 h -0.1718 q -1.1719,0 -1.9141,0.8516 -0.7422,0.8515 -1.0547,2.1093 -0.3125,1.2578 -0.3125,2.3985 v 4.7656 q 0,0.9219 2.8125,0.9219 v 1.0156 z"
       id="path6622" />
    <path
       style="stroke:none"
       d="m -193.4908,-14.4195 q -0.25,0 -0.4062,-0.1797 -0.1563,-0.1797 -0.1563,-0.3984 0,-0.2344 0.1563,-0.4063 0.1562,-0.1718 0.4062,-0.1718 h 18.2032 q 0.2187,0 0.375,0.1718 0.1562,0.1719 0.1562,0.4063 0,0.2187 -0.1562,0.3984 -0.1563,0.1797 -0.375,0.1797 z m 0,-5.625 q -0.25,0 -0.4062,-0.1719 -0.1563,-0.1718 -0.1563,-0.4062 0,-0.2188 0.1563,-0.4063 0.1562,-0.1875 0.4062,-0.1875 h 18.2032 q 0.2187,0 0.375,0.1875 0.1562,0.1875 0.1562,0.4063 0,0.2344 -0.1562,0.4062 -0.1563,0.1719 -0.375,0.1719 z"
       id="path6624" />
    <path
       style="stroke:none"
       d="m -165.6134,-9.9195 q -3.5468,0 -4.8281,-2.9297 -1.2812,-2.9297 -1.2812,-6.9609 0,-2.5156 0.4531,-4.7422 0.4531,-2.2266 1.8203,-3.7734 1.3672,-1.5469 3.8359,-1.5469 1.9063,0 3.125,0.9297 1.2188,0.9297 1.8594,2.414 0.6406,1.4844 0.875,3.1719 0.2344,1.6875 0.2344,3.5469 0,2.5 -0.461,4.6719 -0.4609,2.1718 -1.8046,3.6953 -1.3438,1.5234 -3.8282,1.5234 z m 0,-0.75 q 1.6094,0 2.4063,-1.6562 0.7969,-1.6563 0.9765,-3.6719 0.1797,-2.0156 0.1797,-4.2813 0,-2.1718 -0.1797,-4.0156 -0.1796,-1.8437 -0.9687,-3.3359 -0.7891,-1.4922 -2.4141,-1.4922 -1.6406,0 -2.4375,1.5 -0.7968,1.5 -0.9765,3.3359 -0.1797,1.836 -0.1797,4.0078 0,1.625 0.0781,3.0547 0.0781,1.4297 0.4141,2.9532 0.3359,1.5234 1.0937,2.5625 0.7578,1.039 2.0078,1.039 z"
       id="path6626" />
    <path
       style="stroke:none"
       d="m -155.7592,-12.1539 q 0,-0.6562 0.4844,-1.125 0.4844,-0.4687 1.1094,-0.4687 0.4062,0 0.7891,0.2109 0.3828,0.211 0.5937,0.5938 0.2109,0.3828 0.2109,0.789 0,0.625 -0.4687,1.1094 -0.4688,0.4844 -1.125,0.4844 -0.625,0 -1.1094,-0.4844 -0.4844,-0.4844 -0.4844,-1.1094 z"
       id="path6628" />
    <path
       style="stroke:none"
       d="m -149.236,-15.3414 v -1.0312 l 8.9531,-13.3594 q 0.1094,-0.1406 0.2969,-0.1406 h 0.4375 q 0.3125,0 0.3125,0.3281 v 13.1719 h 2.8594 v 1.0312 h -2.8594 v 2.8438 q 0,0.5937 0.8516,0.7578 0.8515,0.1641 1.9765,0.1641 v 1.0156 h -7.9843 v -1.0156 q 1.1093,0 1.9609,-0.1641 0.8516,-0.1641 0.8516,-0.7578 v -2.8438 z m 0.9531,-1.0312 h 6.875 v -10.2656 z"
       id="path6630" />
    <path
       style="stroke:none"
       d="m -132.1161,-11.7789 q 0.7968,0.9375 2.7656,0.9375 1.1094,0 2.0625,-0.75 0.9531,-0.75 1.4844,-1.8437 0.6093,-1.2344 0.7734,-2.625 0.1641,-1.3906 0.1641,-3.4688 -0.4844,1.1875 -1.4141,1.9375 -0.9297,0.75 -2.1328,0.75 -1.6875,0 -3.0078,-0.914 -1.3203,-0.9141 -2.0313,-2.4141 -0.7109,-1.5 -0.7109,-3.1719 0,-1.75 0.789,-3.2578 0.7891,-1.5078 2.1954,-2.3906 1.4062,-0.8828 3.1875,-0.8828 1.75,0 2.9375,0.9531 1.1875,0.9531 1.8125,2.461 0.625,1.5078 0.8671,3.1953 0.2422,1.6875 0.2422,3.3281 0,2.2344 -0.8203,4.5625 -0.8203,2.3281 -2.4531,3.8906 -1.6328,1.5625 -3.9453,1.5625 -1.7188,0 -2.9063,-0.8125 -1.1875,-0.8125 -1.1875,-2.4375 0,-0.5937 0.4063,-0.9922 0.4062,-0.3984 1,-0.3984 0.5781,0 0.9844,0.3984 0.4062,0.3985 0.4062,0.9922 0,0.5625 -0.4141,0.9766 -0.414,0.414 -0.9765,0.414 z m 3.8125,-5.8281 q 1.1875,0 1.9453,-0.8047 0.7578,-0.8047 1.1015,-1.9922 0.3438,-1.1875 0.3438,-2.3593 v -0.5625 -0.1094 q 0,-2.1719 -0.6406,-3.8906 -0.6407,-1.7188 -2.4375,-1.7188 -1.1407,0 -1.8594,0.5078 -0.7188,0.5078 -1.0547,1.3438 -0.3359,0.8359 -0.4297,1.7812 -0.0937,0.9453 -0.0937,2.0703 0,1.6407 0.1562,2.7969 0.1563,1.1563 0.8516,2.0469 0.6953,0.8906 2.1172,0.8906 z"
       id="path6632" />
    <path
       style="stroke:none"
       d="m -109.9998,-10.5601 v -1.0156 q 2.5937,0 3.1875,-1.7188 l 6.0781,-17.7187 q 0.0938,-0.3125 0.4688,-0.3125 h 0.375 q 0.375,0 0.4687,0.3125 l 6.3594,18.5156 q 0.2656,0.6094 1.0234,0.7656 0.7578,0.1563 1.8828,0.1563 v 1.0156 h -8.0781 v -1.0156 q 2.4063,0 2.4063,-0.7813 v -0.1406 l -1.5782,-4.5313 h -7.0312 l -1.2969,3.7344 q -0.0312,0.0938 -0.0312,0.2969 0,0.7187 0.6875,1.0703 0.6875,0.3516 1.4687,0.3516 v 1.0156 z m 5.9062,-7.4844 h 6.3594 l -3.1875,-9.25 z"
       id="path6634" />
    <path
       style="stroke:none"
       d="m -85.8771,-17.1226 v -11.3125 q 0,-0.9219 -2.9844,-0.9219 v -1.0156 h 8.6875 v 1.0156 q -3,0 -3,0.9219 v 11.2031 q 0,1.6094 0.4532,3.0469 0.4531,1.4375 1.5078,2.3437 1.0547,0.9063 2.7422,0.9063 1.6562,0 2.9218,-0.875 1.2657,-0.875 1.9453,-2.3203 0.6797,-1.4453 0.6797,-3.1016 v -10.4062 q 0,-1.7188 -3,-1.7188 v -1.0156 h 6.9844 v 1.0156 q -2.9687,0 -2.9687,1.7188 v 10.5156 q 0,1.3437 -0.4766,2.6328 -0.4766,1.2891 -1.375,2.3359 -0.8984,1.0469 -2.1172,1.6407 -1.2187,0.5937 -2.5937,0.5937 -1.9219,0 -3.6407,-0.9609 -1.7187,-0.961 -2.7422,-2.625 -1.0234,-1.6641 -1.0234,-3.6172 z"
       id="path6636" />
    <path
       style="stroke:none"
       d="m -61.1427,-13.6539 q 1,1.25 2.4844,1.9844 1.4844,0.7344 3.0781,0.7344 1.3438,0 2.4922,-0.5313 1.1484,-0.5312 2.0078,-1.4843 0.8594,-0.9532 1.3203,-2.1563 0.461,-1.2031 0.461,-2.5312 0,-0.2344 0.25,-0.2344 h 0.3593 q 0.2188,0 0.2188,0.2812 0,1.5157 -0.5781,2.9297 -0.5782,1.4141 -1.6407,2.4844 -1.0625,1.0703 -2.4453,1.6641 -1.3828,0.5937 -2.8828,0.5937 -2.0781,0 -3.9375,-0.8437 -1.8594,-0.8438 -3.2422,-2.3125 -1.3828,-1.4688 -2.1562,-3.3907 -0.7735,-1.9218 -0.7735,-4 0,-2.0937 0.7735,-4.0156 0.7734,-1.9219 2.1562,-3.3984 1.3828,-1.4766 3.2422,-2.3047 1.8594,-0.8281 3.9375,-0.8281 1.4844,0 2.8438,0.6484 1.3593,0.6484 2.3906,1.8203 l 1.6875,-2.375 q 0.1562,-0.0937 0.1875,-0.0937 h 0.2187 q 0.0782,0 0.1485,0.0703 0.0703,0.0703 0.0703,0.1797 v 7.8281 q 0,0.25 -0.2188,0.25 h -0.5312 q -0.2656,0 -0.2656,-0.25 0,-0.8438 -0.336,-1.875 -0.3359,-1.0313 -0.8515,-1.9609 -0.5157,-0.9297 -1.1875,-1.6329 -1.625,-1.5781 -3.7344,-1.5781 -1.6094,0 -3.0703,0.7188 -1.461,0.7187 -2.4766,2 -1.0625,1.3593 -1.4687,3.0937 -0.4063,1.7344 -0.4063,3.7031 0,1.9688 0.4063,3.711 0.4062,1.7422 1.4687,3.1015 z"
       id="path6638" />
    <path
       style="stroke:none"
       d="m -44.3793,-14.4195 q -0.25,0 -0.4063,-0.1797 -0.1562,-0.1797 -0.1562,-0.3984 0,-0.2344 0.1562,-0.4063 0.1563,-0.1718 0.4063,-0.1718 h 18.2031 q 0.2187,0 0.375,0.1718 0.1562,0.1719 0.1562,0.4063 0,0.2187 -0.1562,0.3984 -0.1563,0.1797 -0.375,0.1797 z m 0,-5.625 q -0.25,0 -0.4063,-0.1719 -0.1562,-0.1718 -0.1562,-0.4062 0,-0.2188 0.1562,-0.4063 0.1563,-0.1875 0.4063,-0.1875 h 18.2031 q 0.2187,0 0.375,0.1875 0.1562,0.1875 0.1562,0.4063 0,0.2344 -0.1562,0.4062 -0.1563,0.1719 -0.375,0.1719 z"
       id="path6640" />
    <path
       style="stroke:none"
       d="m -16.502,-9.9195 q -3.5468,0 -4.8281,-2.9297 -1.2812,-2.9297 -1.2812,-6.9609 0,-2.5156 0.4531,-4.7422 0.4531,-2.2266 1.8203,-3.7734 1.3672,-1.5469 3.8359,-1.5469 1.9063,0 3.125,0.9297 1.2188,0.9297 1.8594,2.414 0.6406,1.4844 0.875,3.1719 0.2344,1.6875 0.2344,3.5469 0,2.5 -0.461,4.6719 -0.4609,2.1718 -1.8046,3.6953 -1.3438,1.5234 -3.8282,1.5234 z m 0,-0.75 q 1.6094,0 2.4063,-1.6562 0.7969,-1.6563 0.9765,-3.6719 0.1797,-2.0156 0.1797,-4.2813 0,-2.1718 -0.1797,-4.0156 -0.1796,-1.8437 -0.9687,-3.3359 -0.7891,-1.4922 -2.4141,-1.4922 -1.6406,0 -2.4375,1.5 -0.7968,1.5 -0.9765,3.3359 -0.1797,1.836 -0.1797,4.0078 0,1.625 0.0781,3.0547 0.0781,1.4297 0.4141,2.9532 0.3359,1.5234 1.0937,2.5625 0.7578,1.039 2.0078,1.039 z"
       id="path6642" />
    <path
       style="stroke:none"
       d="m -6.6477,-12.1539 q 0,-0.6562 0.4843,-1.125 0.4844,-0.4687 1.1094,-0.4687 0.4063,0 0.7891,0.2109 0.3828,0.211 0.5937,0.5938 0.211,0.3828 0.211,0.789 0,0.625 -0.4688,1.1094 -0.4687,0.4844 -1.125,0.4844 -0.625,0 -1.1094,-0.4844 -0.4843,-0.4844 -0.4843,-1.1094 z"
       id="path6644" />
    <path
       style="stroke:none"
       d="m 4.1098,-11.3101 q 0,-1.6094 0.2812,-3.1563 0.2813,-1.5468 0.8282,-3.0546 0.5468,-1.5079 1.3125,-2.961 0.7656,-1.4531 1.6875,-2.7187 l 2.6562,-3.6875 H 7.5629 q -5.1562,0 -5.3125,0.1406 -0.3906,0.4687 -0.7187,2.6719 H 0.6879 l 0.9531,-6.0782 h 0.8438 v 0.0782 q 0,0.5312 1.7734,0.6875 1.7735,0.1562 3.4766,0.1562 h 5.3906 v 0.75 q 0,0.0156 -0.0078,0.0313 -0.0078,0.0156 -0.0234,0.0468 l -3.9844,5.6094 q -1.4844,2.1875 -1.8516,4.8438 -0.3672,2.6562 -0.3672,6.6406 0,0.5625 -0.4062,0.9766 -0.4063,0.414 -0.9844,0.414 -0.5781,0 -0.9844,-0.414 -0.4062,-0.4141 -0.4062,-0.9766 z"
       id="path6646" />
    <path
       style="stroke:none"
       d="m 20.9796,-9.9195 q -1.7968,0 -3,-0.9609 -1.2031,-0.961 -1.8593,-2.4766 -0.6563,-1.5156 -0.9141,-3.1875 -0.2578,-1.6719 -0.2578,-3.3906 0,-2.2969 0.8906,-4.6016 0.8906,-2.3047 2.625,-3.8203 1.7344,-1.5156 4.1094,-1.5156 1,0 1.8594,0.375 0.8593,0.375 1.3437,1.1016 0.4844,0.7265 0.4844,1.7578 0,0.5937 -0.4063,1 -0.4062,0.4062 -1,0.4062 -0.5625,0 -0.9687,-0.4062 -0.4063,-0.4063 -0.4063,-1 0,-0.5625 0.4063,-0.9688 0.4062,-0.4062 0.9687,-0.4062 h 0.1563 q -0.3594,-0.5313 -1.0313,-0.7813 -0.6718,-0.25 -1.4062,-0.25 -0.875,0 -1.6172,0.3828 -0.7422,0.3828 -1.3359,1.0391 -0.5938,0.6562 -0.9922,1.4375 -0.3985,0.7812 -0.6172,1.7891 -0.2188,1.0078 -0.2735,1.8828 -0.0546,0.875 -0.0546,2.2031 0.5,-1.1875 1.4375,-1.9453 0.9375,-0.7578 2.1093,-0.7578 1.2969,0 2.3594,0.5234 1.0625,0.5234 1.8281,1.4531 0.7657,0.9297 1.1641,2.1172 0.3984,1.1875 0.3984,2.4063 0,1.7031 -0.7578,3.2422 -0.7578,1.539 -2.1328,2.4453 -1.375,0.9062 -3.1094,0.9062 z m 0,-0.9219 q 1.125,0 1.8047,-0.5078 0.6797,-0.5078 0.9922,-1.3515 0.3125,-0.8438 0.3906,-1.7032 0.0782,-0.8593 0.0782,-2.1093 0,-1.6407 -0.1563,-2.7969 -0.1562,-1.1563 -0.8437,-2.0469 -0.6875,-0.8906 -2.125,-0.8906 -1.1719,0 -1.9297,0.7969 -0.7578,0.7968 -1.1094,2.0078 -0.3516,1.2109 -0.3516,2.3203 0,0.3906 0.0313,0.5937 0,0.0313 -0.0078,0.0625 -0.0078,0.0313 -0.0235,0.0782 0,1.2343 0.2578,2.5078 0.2579,1.2734 0.9844,2.1562 0.7266,0.8828 2.0078,0.8828 z"
       id="path6648" />
    <path
       style="stroke:none"
       d="m 39.1116,-10.5601 v -1.0156 q 2.5938,0 3.1875,-1.7188 l 6.0781,-17.7187 q 0.0938,-0.3125 0.4688,-0.3125 h 0.375 q 0.375,0 0.4687,0.3125 l 6.3594,18.5156 q 0.2656,0.6094 1.0234,0.7656 0.7579,0.1563 1.8829,0.1563 v 1.0156 h -8.0782 v -1.0156 q 2.4063,0 2.4063,-0.7813 v -0.1406 l -1.5781,-4.5313 h -7.0313 l -1.2969,3.7344 q -0.0312,0.0938 -0.0312,0.2969 0,0.7187 0.6875,1.0703 0.6875,0.3516 1.4687,0.3516 v 1.0156 z m 5.9063,-7.4844 h 6.3593 l -3.1875,-9.25 z"
       id="path6650" />
    <path
       style="stroke:none"
       d="m 65.9687,-13.6539 q 1,1.25 2.4844,1.9844 1.4843,0.7344 3.0781,0.7344 1.3437,0 2.4922,-0.5313 1.1484,-0.5312 2.0078,-1.4843 0.8594,-0.9532 1.3203,-2.1563 0.4609,-1.2031 0.4609,-2.5312 0,-0.2344 0.25,-0.2344 h 0.3594 q 0.2188,0 0.2188,0.2812 0,1.5157 -0.5782,2.9297 -0.5781,1.4141 -1.6406,2.4844 -1.0625,1.0703 -2.4453,1.6641 -1.3828,0.5937 -2.8828,0.5937 -2.0781,0 -3.9375,-0.8437 -1.8594,-0.8438 -3.2422,-2.3125 -1.3828,-1.4688 -2.1562,-3.3907 -0.7735,-1.9218 -0.7735,-4 0,-2.0937 0.7735,-4.0156 0.7734,-1.9219 2.1562,-3.3984 1.3828,-1.4766 3.2422,-2.3047 1.8594,-0.8281 3.9375,-0.8281 1.4844,0 2.8437,0.6484 1.3594,0.6484 2.3907,1.8203 l 1.6875,-2.375 q 0.1562,-0.0937 0.1875,-0.0937 h 0.2187 q 0.0781,0 0.1485,0.0703 0.0703,0.0703 0.0703,0.1797 v 7.8281 q 0,0.25 -0.2188,0.25 h -0.5312 q -0.2657,0 -0.2657,-0.25 0,-0.8438 -0.3359,-1.875 -0.3359,-1.0313 -0.8516,-1.9609 -0.5156,-0.9297 -1.1875,-1.6329 -1.625,-1.5781 -3.7343,-1.5781 -1.6094,0 -3.0703,0.7188 -1.461,0.7187 -2.4766,2 -1.0625,1.3593 -1.4688,3.0937 -0.4062,1.7344 -0.4062,3.7031 0,1.9688 0.4062,3.711 0.4063,1.7422 1.4688,3.1015 z"
       id="path6652" />
    <path
       style="stroke:none"
       d="m 87.1539,-13.6539 q 1,1.25 2.4844,1.9844 1.4843,0.7344 3.0781,0.7344 1.3437,0 2.4922,-0.5313 1.1484,-0.5312 2.0078,-1.4843 0.8594,-0.9532 1.3203,-2.1563 0.4609,-1.2031 0.4609,-2.5312 0,-0.2344 0.25,-0.2344 h 0.3594 q 0.2188,0 0.2188,0.2812 0,1.5157 -0.5782,2.9297 -0.5781,1.4141 -1.6406,2.4844 -1.0625,1.0703 -2.4453,1.6641 -1.3828,0.5937 -2.8828,0.5937 -2.0781,0 -3.9375,-0.8437 -1.8594,-0.8438 -3.2422,-2.3125 -1.3828,-1.4688 -2.1562,-3.3907 -0.7735,-1.9218 -0.7735,-4 0,-2.0937 0.7735,-4.0156 0.7734,-1.9219 2.1562,-3.3984 1.3828,-1.4766 3.2422,-2.3047 1.8594,-0.8281 3.9375,-0.8281 1.4844,0 2.8437,0.6484 1.3594,0.6484 2.3907,1.8203 l 1.6875,-2.375 q 0.1562,-0.0937 0.1875,-0.0937 h 0.2187 q 0.0781,0 0.1485,0.0703 0.0703,0.0703 0.0703,0.1797 v 7.8281 q 0,0.25 -0.2188,0.25 h -0.5312 q -0.2657,0 -0.2657,-0.25 0,-0.8438 -0.3359,-1.875 -0.3359,-1.0313 -0.8516,-1.9609 -0.5156,-0.9297 -1.1875,-1.6329 -1.625,-1.5781 -3.7343,-1.5781 -1.6094,0 -3.0703,0.7188 -1.461,0.7187 -2.4766,2 -1.0625,1.3593 -1.4688,3.0937 -0.4062,1.7344 -0.4062,3.7031 0,1.9688 0.4062,3.711 0.4063,1.7422 1.4688,3.1015 z"
       id="path6654" />
    <path
       style="stroke:none"
       d="m 103.9172,-14.4195 q -0.25,0 -0.4062,-0.1797 -0.1563,-0.1797 -0.1563,-0.3984 0,-0.2344 0.1563,-0.4063 0.1562,-0.1718 0.4062,-0.1718 h 18.2032 q 0.2187,0 0.375,0.1718 0.1562,0.1719 0.1562,0.4063 0,0.2187 -0.1562,0.3984 -0.1563,0.1797 -0.375,0.1797 z m 0,-5.625 q -0.25,0 -0.4062,-0.1719 -0.1563,-0.1718 -0.1563,-0.4062 0,-0.2188 0.1563,-0.4063 0.1562,-0.1875 0.4062,-0.1875 h 18.2032 q 0.2187,0 0.375,0.1875 0.1562,0.1875 0.1562,0.4063 0,0.2344 -0.1562,0.4062 -0.1563,0.1719 -0.375,0.1719 z"
       id="path6656" />
    <path
       style="stroke:none"
       d="m 131.7946,-9.9195 q -3.5469,0 -4.8281,-2.9297 -1.2813,-2.9297 -1.2813,-6.9609 0,-2.5156 0.4532,-4.7422 0.4531,-2.2266 1.8203,-3.7734 1.3672,-1.5469 3.8359,-1.5469 1.9063,0 3.125,0.9297 1.2188,0.9297 1.8594,2.414 0.6406,1.4844 0.875,3.1719 0.2344,1.6875 0.2344,3.5469 0,2.5 -0.461,4.6719 -0.4609,2.1718 -1.8047,3.6953 -1.3437,1.5234 -3.8281,1.5234 z m 0,-0.75 q 1.6094,0 2.4063,-1.6562 0.7968,-1.6563 0.9765,-3.6719 0.1797,-2.0156 0.1797,-4.2813 0,-2.1718 -0.1797,-4.0156 -0.1797,-1.8437 -0.9687,-3.3359 -0.7891,-1.4922 -2.4141,-1.4922 -1.6406,0 -2.4375,1.5 -0.7969,1.5 -0.9765,3.3359 -0.1797,1.836 -0.1797,4.0078 0,1.625 0.0781,3.0547 0.0781,1.4297 0.4141,2.9532 0.3359,1.5234 1.0937,2.5625 0.7578,1.039 2.0078,1.039 z"
       id="path6658" />
    <path
       style="stroke:none"
       d="m 141.6488,-12.1539 q 0,-0.6562 0.4844,-1.125 0.4844,-0.4687 1.1094,-0.4687 0.4062,0 0.789,0.2109 0.3828,0.211 0.5938,0.5938 0.2109,0.3828 0.2109,0.789 0,0.625 -0.4687,1.1094 -0.4688,0.4844 -1.125,0.4844 -0.625,0 -1.1094,-0.4844 -0.4844,-0.4844 -0.4844,-1.1094 z"
       id="path6660" />
    <path
       style="stroke:none"
       d="m 152.4064,-11.3101 q 0,-1.6094 0.2812,-3.1563 0.2813,-1.5468 0.8281,-3.0546 0.5469,-1.5079 1.3125,-2.961 0.7657,-1.4531 1.6875,-2.7187 l 2.6563,-3.6875 h -3.3125 q -5.1563,0 -5.3125,0.1406 -0.3906,0.4687 -0.7188,2.6719 h -0.8437 l 0.9531,-6.0782 h 0.8438 v 0.0782 q 0,0.5312 1.7734,0.6875 1.7734,0.1562 3.4766,0.1562 h 5.3906 v 0.75 q 0,0.0156 -0.008,0.0313 -0.008,0.0156 -0.0235,0.0468 l -3.9843,5.6094 q -1.4844,2.1875 -1.8516,4.8438 -0.3672,2.6562 -0.3672,6.6406 0,0.5625 -0.4062,0.9766 -0.4063,0.414 -0.9844,0.414 -0.5781,0 -0.9844,-0.414 -0.4062,-0.4141 -0.4062,-0.9766 z"
       id="path6662" />
    <path
       style="stroke:none"
       d="m 169.2762,-9.9195 q -3.5469,0 -4.8281,-2.9297 -1.2813,-2.9297 -1.2813,-6.9609 0,-2.5156 0.4532,-4.7422 0.4531,-2.2266 1.8203,-3.7734 1.3672,-1.5469 3.8359,-1.5469 1.9063,0 3.125,0.9297 1.2188,0.9297 1.8594,2.414 0.6406,1.4844 0.875,3.1719 0.2344,1.6875 0.2344,3.5469 0,2.5 -0.461,4.6719 -0.4609,2.1718 -1.8047,3.6953 -1.3437,1.5234 -3.8281,1.5234 z m 0,-0.75 q 1.6094,0 2.4063,-1.6562 0.7968,-1.6563 0.9765,-3.6719 0.1797,-2.0156 0.1797,-4.2813 0,-2.1718 -0.1797,-4.0156 -0.1797,-1.8437 -0.9687,-3.3359 -0.7891,-1.4922 -2.4141,-1.4922 -1.6406,0 -2.4375,1.5 -0.7969,1.5 -0.9765,3.3359 -0.1797,1.836 -0.1797,4.0078 0,1.625 0.0781,3.0547 0.0781,1.4297 0.4141,2.9532 0.3359,1.5234 1.0937,2.5625 0.7578,1.039 2.0078,1.039 z"
       id="path6664" />
    <path
       style="stroke:none"
       d="m 187.3613,-10.5601 v -1.0156 q 2.9844,0 2.9844,-0.9219 v -15.9375 q 0,-0.9219 -2.9844,-0.9219 v -1.0156 h 15.9844 l 0.8125,6.6406 h -0.8438 q -0.1875,-1.8281 -0.5234,-2.8828 -0.3359,-1.0547 -0.9687,-1.6562 -0.6329,-0.6016 -1.7032,-0.8438 -1.0703,-0.2422 -2.9453,-0.2422 h -2.6406 q -0.5313,0 -0.8203,0.0469 -0.2891,0.0469 -0.4766,0.25 -0.1875,0.2031 -0.1875,0.625 v 7.4687 h 2.0625 q 1.4844,0 2.1797,-0.2656 0.6953,-0.2656 0.9531,-0.9531 0.2578,-0.6875 0.2578,-2.1875 h 0.8438 v 7.8125 h -0.8438 q 0,-1.4844 -0.2578,-2.1797 -0.2578,-0.6953 -0.9531,-0.9609 -0.6953,-0.2657 -2.1797,-0.2657 h -2.0625 v 7.4688 q 0,0.9219 3.7188,0.9219 v 1.0156 z"
       id="path6666" />
    <path
       style="stroke:none"
       d="m 208.3064,-10.5601 v -1.0156 q 3.625,0 3.625,-0.9219 v -15.2188 q -1.5,0.7188 -3.7969,0.7188 v -1.0156 q 3.5625,0 5.375,-1.8594 h 0.4063 q 0.0937,0 0.1875,0.0781 0.0937,0.0781 0.0937,0.1719 v 17.125 q 0,0.9219 3.625,0.9219 v 1.0156 z"
       id="path6668" />
    <path
       style="stroke:none"
       d="m 222.4731,-14.4195 q -0.25,0 -0.4062,-0.1797 -0.1563,-0.1797 -0.1563,-0.3984 0,-0.2344 0.1563,-0.4063 0.1562,-0.1718 0.4062,-0.1718 h 18.2031 q 0.2188,0 0.375,0.1718 0.1563,0.1719 0.1563,0.4063 0,0.2187 -0.1563,0.3984 -0.1562,0.1797 -0.375,0.1797 z m 0,-5.625 q -0.25,0 -0.4062,-0.1719 -0.1563,-0.1718 -0.1563,-0.4062 0,-0.2188 0.1563,-0.4063 0.1562,-0.1875 0.4062,-0.1875 h 18.2031 q 0.2188,0 0.375,0.1875 0.1563,0.1875 0.1563,0.4063 0,0.2344 -0.1563,0.4062 -0.1562,0.1719 -0.375,0.1719 z"
       id="path6670" />
    <path
       style="stroke:none"
       d="m 250.3505,-9.9195 q -3.5469,0 -4.8281,-2.9297 -1.2813,-2.9297 -1.2813,-6.9609 0,-2.5156 0.4531,-4.7422 0.4532,-2.2266 1.8204,-3.7734 1.3671,-1.5469 3.8359,-1.5469 1.9062,0 3.125,0.9297 1.2187,0.9297 1.8594,2.414 0.6406,1.4844 0.875,3.1719 0.2343,1.6875 0.2343,3.5469 0,2.5 -0.4609,4.6719 -0.4609,2.1718 -1.8047,3.6953 -1.3437,1.5234 -3.8281,1.5234 z m 0,-0.75 q 1.6094,0 2.4062,-1.6562 0.7969,-1.6563 0.9766,-3.6719 0.1797,-2.0156 0.1797,-4.2813 0,-2.1718 -0.1797,-4.0156 -0.1797,-1.8437 -0.9687,-3.3359 -0.7891,-1.4922 -2.4141,-1.4922 -1.6406,0 -2.4375,1.5 -0.7969,1.5 -0.9766,3.3359 -0.1797,1.836 -0.1797,4.0078 0,1.625 0.0782,3.0547 0.0781,1.4297 0.414,2.9532 0.336,1.5234 1.0938,2.5625 0.7578,1.039 2.0078,1.039 z"
       id="path6672" />
    <path
       style="stroke:none"
       d="m 260.2047,-12.1539 q 0,-0.6562 0.4844,-1.125 0.4844,-0.4687 1.1094,-0.4687 0.4062,0 0.789,0.2109 0.3828,0.211 0.5938,0.5938 0.2109,0.3828 0.2109,0.789 0,0.625 -0.4687,1.1094 -0.4688,0.4844 -1.125,0.4844 -0.625,0 -1.1094,-0.4844 -0.4844,-0.4844 -0.4844,-1.1094 z"
       id="path6674" />
    <path
       style="stroke:none"
       d="m 270.9622,-11.3101 q 0,-1.6094 0.2813,-3.1563 0.2812,-1.5468 0.8281,-3.0546 0.5469,-1.5079 1.3125,-2.961 0.7656,-1.4531 1.6875,-2.7187 l 2.6563,-3.6875 h -3.3125 q -5.1563,0 -5.3125,0.1406 -0.3907,0.4687 -0.7188,2.6719 h -0.8437 l 0.9531,-6.0782 h 0.8437 v 0.0782 q 0,0.5312 1.7735,0.6875 1.7734,0.1562 3.4765,0.1562 h 5.3907 v 0.75 q 0,0.0156 -0.008,0.0313 -0.008,0.0156 -0.0235,0.0468 l -3.9844,5.6094 q -1.4843,2.1875 -1.8515,4.8438 -0.3672,2.6562 -0.3672,6.6406 0,0.5625 -0.4063,0.9766 -0.4062,0.414 -0.9843,0.414 -0.5782,0 -0.9844,-0.414 -0.4063,-0.4141 -0.4063,-0.9766 z"
       id="path6676" />
    <path
       style="stroke:none"
       d="m 283.0977,-13.857 q 0.2969,0.8438 0.9141,1.5391 0.6172,0.6953 1.4609,1.0859 0.8438,0.3906 1.75,0.3906 2.0938,0 2.8906,-1.6328 0.7969,-1.6328 0.7969,-3.9453 0,-1.0156 -0.039,-1.6953 -0.0391,-0.6797 -0.1954,-1.3203 -0.2656,-1.0156 -0.9375,-1.7813 -0.6718,-0.7656 -1.6562,-0.7656 -0.9688,0 -1.6719,0.2969 -0.7031,0.2969 -1.1406,0.6875 -0.4375,0.3906 -0.7813,0.8359 -0.3437,0.4453 -0.4218,0.461 h -0.3282 q -0.0625,0 -0.1718,-0.086 -0.1094,-0.0859 -0.1094,-0.1797 v -9.6875 q 0,-0.0625 0.0937,-0.1406 0.0938,-0.0781 0.1875,-0.0781 h 0.0938 q 1.9531,0.9375 4.1406,0.9375 2.1563,0 4.1563,-0.9375 h 0.0781 q 0.0937,0 0.1797,0.0703 0.0859,0.0703 0.0859,0.1484 v 0.2813 q 0,0.1406 -0.0469,0.1406 -1,1.3125 -2.4921,2.0469 -1.4922,0.7344 -3.086,0.7344 -1.1719,0 -2.3906,-0.3282 v 5.4844 q 0.9687,-0.7812 1.7266,-1.1094 0.7578,-0.3281 1.9296,-0.3281 1.6094,0 2.875,0.9141 1.2657,0.914 1.9454,2.3984 0.6796,1.4844 0.6796,3.0313 0,1.7343 -0.8593,3.2187 -0.8594,1.4844 -2.3282,2.3672 -1.4687,0.8828 -3.2031,0.8828 -1.4219,0 -2.625,-0.7344 -1.2031,-0.7343 -1.8906,-1.9843 -0.6875,-1.25 -0.6875,-2.6563 0,-0.6406 0.4297,-1.0547 0.4297,-0.414 1.0703,-0.414 0.625,0 1.0625,0.4218 0.4375,0.4219 0.4375,1.0469 0,0.625 -0.4375,1.0547 -0.4375,0.4297 -1.0625,0.4297 -0.1094,0 -0.2344,-0.0156 -0.125,-0.0157 -0.1875,-0.0313 z"
       id="path6678" />
  </g>
  <g
     style="color-interpolation:linearRGB;stroke-width:2;stroke-linecap:butt;stroke-linejoin:round;color-rendering:optimizeQuality;image-rendering:optimizeQuality;text-rendering:geometricPrecision"
     id="g6686"
     transform="translate(-156.7812,-5.1595)">
    <path
       d="m 206,359.808 3.4426,20.5439 3.4425,10.1259 3.4426,0.6051 3.4426,-6.9123 3.4426,13.9733 3.4426,8.4796 3.4425,-3.1581 3.4426,1.3732 3.4426,3.6606 3.4426,-15.4621 3.4425,7.2828 3.4426,2.1188 3.4426,4.3514 3.4426,-3.0502 3.4425,-6.6961 3.4426,-5.7813 3.4426,-1.6427 3.4426,11.8511 3.4426,-0.9969 3.4425,-13.5792 3.4426,4.0619 3.4426,6.6139 3.4426,-0.8888 3.4426,2.8375 3.4425,2.9299 3.4426,5.2432 3.4426,-10.0253 3.4426,7.4758 3.4425,2.5559 3.4426,3.8919 3.4426,1.0812 3.4426,0.769 3.4425,1.4338 3.4426,-5.8952 3.4426,6.0205 3.4426,-10.8092 3.4425,-12.6175 3.4426,-12.7613 3.4426,-36.2171 3.4426,-29.0816 3.4426,-210.1878 3.4425,219.0425 3.4426,11.7318 3.4426,-25.5357 3.4426,-219.3583 3.4426,-11.6074 3.4425,5.3274 3.4426,-3.3026 3.4426,-2.8084 3.4425,10.4712 3.4426,249.4122 3.4426,-15.2712 3.4426,-2.082 3.4426,-212.838 3.4425,196.7894 3.4426,32.2235 3.4426,-5.0551 3.4426,-33.7514 3.4425,-200.6546 3.4426,-26.8674 3.4426,23.6228 3.4426,-13.4761 3.4426,-18.5784 3.4425,29.2144 3.4426,-1.079 3.4426,-8.8115 3.4425,-8.6098 3.4426,-9.4112 3.4426,-8.6044 3.4426,0.0478 3.4426,7.2146 3.4425,5.4915 3.4426,-12.3215 3.4426,-3.7125 3.4426,5.8709 3.4426,-5.2343 3.4425,-0.1143 3.4426,-1.5091 3.4426,15.9961 3.4426,42.4877 3.4425,212.8615 3.4426,-21.7424 3.4426,-208.9311 3.4426,-35.4462 3.4425,-7.5687 3.4426,-1.9264 3.4426,-0.7632 3.4426,4.0303 3.4425,4.913 3.4426,7.568 3.4426,2.6348 3.4426,-11.0306 3.4426,-2.6339 3.4425,0.1657 3.4426,6.8255 3.4426,-7.0875 3.4426,1.2806 3.4426,9.3937 3.4425,-8.6002 3.4426,-1.1787 3.4426,-1.7763 3.4426,16.2853 3.4425,11.0448 3.4426,-10.0517 3.4426,-8.4201 3.4425,-14.4002 3.4426,-1.1211 3.4426,2.4595 3.4426,1.5979 3.4426,1.5205 3.4425,2.7216 3.4426,-1.9599 3.4426,-0.5092 3.4426,2.4524 3.4426,41.3958 3.4425,208.8528 3.4426,14.5683 3.4426,-2.7915 3.4426,-9.8071 3.4426,5.8494 3.4425,12.8972 3.4426,-217.8143 3.4426,-21.8742 3.4426,-5.3999 3.4425,-5.1035 3.4426,28.995 3.4426,221.0851 3.4425,9.8698 3.4426,16.2652 3.4426,-2.5015 3.4426,-12.7518 3.4426,-27.3527 3.4425,-225.602 3.4426,-9.9123 3.4426,14.2789 3.4426,243.989 3.4426,25.9245 3.4425,12.0282 3.4426,8.8575 3.4426,5.5835 3.4426,5.4528 3.4425,-5.819 3.4426,0.324 3.4426,-3.7002 3.4425,0.3357 3.4427,-12.6765 3.4425,-52.1525 3.4426,-12.97 3.4426,32.4013 3.4425,15.9583 3.4426,-5.1232 3.4426,1.6917 3.4426,-7.7333 3.4426,-9.755 3.4425,-222.0571 3.4426,-33.1738 3.4426,9.516 3.4426,3.8986 3.4426,0.3366 3.4425,-16.8427 3.4426,-11.7535 3.4425,-10.0469 3.4427,5.8573 3.4425,-6.0182 3.4426,6.0049 3.4426,-2.6614 3.4425,-2.583 3.4427,2.0259 3.4425,8.7669 3.4426,2.866 3.4426,-9.8069 3.4425,-7.7089 3.4426,8.2511 3.4426,8.4899 3.4426,-10.3324 3.4426,7.0688 3.4425,21.899 3.4426,-18.5826 3.4426,5.3858 3.4426,-14.9339 3.4425,-3.5576 3.4426,0.6425 3.4426,-1.614 3.4426,1.7299 3.4426,3.3876 3.4425,4.824 3.4426,7.475 3.4426,12.5656 3.4425,235.4557 3.4427,-0.5332 3.4425,10.5667 3.4426,-13.2193 3.4426,-205.2359 3.4425,236.5492 3.4427,17.3347 3.4425,5.6322 3.4426,-6.5152 3.4425,7.3968 3.4426,-6.7643 3.4426,5.7674 3.4426,-36.6396 3.4426,9.9231 3.4425,-8.7029 3.4426,-2.6437 3.4426,35.4603 3.4426,6.1396 3.4426,-17.4762 3.4425,33.4025 3.4426,17.6621 3.4426,1.5288 3.4425,4.7723 3.4427,-1.4867 3.4425,-2.08 3.4426,0.7688 3.4426,-6.616 3.4425,-1.046 3.4426,-8.6575 3.4426,-11.1096 3.4426,-33.5785 3.4425,-0.4898 3.4426,-30.6826 3.4426,-241.3443 3.4426,9.9189 3.4426,15.8633 3.4425,-2.5655 3.4426,203.3286 3.4426,5.1667 3.4426,-4.9506 3.4426,-200.7232 3.4425,-28.1422 3.4426,-16.4315 3.4426,-4.2149 3.4425,-0.3044 3.4426,12.0584 3.4426,26.8865 3.4426,-17.8786 3.4425,-15.0035 3.4427,-3.5033 3.4425,-2.0199 3.4426,-3.0332 3.4425,-0.4231 3.4426,4.441 3.4427,-1.0939 3.4425,-3.7907 3.4426,3.4229 3.4425,-0.6279 3.4426,1.9195 3.4427,-0.0111 3.4425,5.6527 3.4426,-5.9952 3.4425,-1.1305 3.4426,0.115 3.4426,-0.2843 3.4426,1.445 3.4426,-1.292 3.4425,0.9017 3.4426,2.439 3.4425,-2.9805 3.4426,0.4481 3.4427,3.5685 3.4425,-3.6433 3.4426,2.4776 3.4425,-1.0686 3.4426,17.2736 3.4427,-0.8472 3.4425,-8.5873 3.4426,-9.0478 3.4425,7.1296 3.4426,8.2758 3.4426,-14.7537 3.4426,0.0165 3.4426,4.8327 3.4425,-4.7705 3.4426,-1.6244 3.4426,2.9641 3.4425,-0.4862 3.4427,0.8437 3.4425,-0.6842 3.4426,-0.588 3.4425,3.5239 3.4426,-2.2591 3.4427,-0.1155 3.4425,-0.999 3.4426,-0.2516 3.4425,-0.6303 3.4426,-2.0496 3.4427,0.449 3.4425,1.8503 3.4426,-1.0312 3.4425,1.3239 3.4426,-3.8873 3.4426,2.0407 3.4425,2.4537 3.4427,-3.1866 3.4425,-1.701 3.4426,0.7966 3.4426,-0.6872 3.4425,0.6914 3.4427,2.3865 3.4425,2.9481 3.4426,31.205 3.4425,14.8551 3.4426,211.0652 3.4427,8.5158 3.4425,2.8036 3.4426,-210.6329 3.4425,-10.183 3.4426,-15.4401 3.4426,-20.9358 3.4426,17.1427 3.4426,219.1174 3.4425,8.528 3.4426,12.8924 3.4426,-7.7397 3.4425,-214.5771 3.4427,9.2386 3.4425,215.9027 3.4426,-13.0701 3.4426,-0.5506 3.4425,-229.9732 3.4427,-14.8608 3.4425,11.5639 3.4426,28.0244 3.4425,198.8486 3.4426,-219.868 3.4427,-14.4426 3.4425,24.0552 3.4426,6.1386 3.4425,-31.9936 3.4426,1.1779 3.4426,-4.0939 3.4425,10.5463 3.4427,18.3404 3.4425,-9.2699 3.4426,2.3377 3.4426,2.9599 3.4425,218.6821 3.4427,7.1273 3.4425,22.941 3.4426,23.243 3.4426,40.6865 3.4425,5.5771 3.4427,-1.4258 3.4425,-2.2698 3.4426,-0.8052 3.4425,-3.5618 3.4426,-11.3953 3.4426,-11.9992 3.4426,-27.9049 3.4426,18.2922 3.4425,27.2501 3.4426,7.7856 3.4426,0.7915 3.4425,2.6642 3.4427,-3.4272 3.4425,-0.065 3.4426,-2.3537"
       style="fill:none;fill-rule:evenodd"
       id="path6682" />
    <path
       d="m 206,403.5378 h 3.4426 l 3.4425,-26.7706 3.4426,-14.4324 3.4426,1.9477 3.4426,0.2599 3.4426,-14.5384 3.4425,12.5513 3.4426,-11.0861 3.4426,-3.6517 3.4426,-16.1107 3.4425,34.9378 3.4426,6.0799 3.4426,16.3684 3.4426,6.4997 3.4425,19.4074 3.4426,-4.3767 3.4426,2.1458 3.4426,-3.5327 3.4426,-1.646 3.4425,-6.1849 3.4426,-13.2753 3.4426,7.5543 3.4426,3.3937 3.4426,-15.8761 3.4425,-1.8429 3.4426,12.1732 3.4426,4.1677 3.4426,8.3309 h 3.4425 l 3.4426,-7.2798 h 3.4426 3.4426 l 3.4425,-3.4143 3.4426,-2.245 3.4426,-2.3974 3.4426,-24.2326 3.4425,9.9798 3.4426,-35.2479 3.4426,-39.174 3.4426,-218.6041 3.4426,10.3639 3.4425,-14.7997 3.4426,15.8145 3.4426,1.6831 3.4426,-7.665 3.4426,-26.2233 3.4425,-2.6946 3.4426,-14.5751 3.4426,-3.0974 3.4425,34.9352 3.4426,27.2064 3.4426,197.519 3.4426,-4.2923 3.4426,20.1803 3.4425,-214.1078 3.4426,-10.951 3.4426,-10.6096 3.4426,15.2013 3.4425,-0.5356 3.4426,8.2261 3.4426,-13.5371 3.4426,-0.4865 3.4426,-13.2348 3.4425,17.0503 3.4426,-14.8009 3.4426,9.1869 3.4425,6.4807 3.4426,221.4208 3.4426,-1.3806 3.4426,3.0922 3.4426,-9.4546 3.4425,-6.6606 3.4426,-220.5711 3.4426,-34.5686 3.4426,3.7785 3.4426,-0.8719 3.4425,0.3613 3.4426,18.2669 3.4426,0.452 3.4426,-0.1615 3.4425,9.7553 3.4426,-0.154 3.4426,-13.4093 3.4426,-0.4182 3.4425,10.495 3.4426,-1.8208 3.4426,23.9216 3.4426,211.1527 3.4425,13.8716 3.4426,-1.0119 3.4426,16.1973 3.4426,-14.2724 3.4426,-217.4371 3.4425,-2.3532 3.4426,0.6715 3.4426,-13.8571 3.4426,-6.2029 3.4426,4.9072 3.4425,-5.2406 3.4426,-7.2841 3.4426,-9.5213 3.4426,-2.697 3.4425,-4.2229 3.4426,-4.6313 3.4426,-6.0063 3.4425,-2.3798 3.4426,7.2621 3.4426,22.723 3.4426,-0.4651 3.4426,30.6308 3.4425,191.9047 3.4426,-193.5651 3.4426,-20.2511 3.4426,212.6257 3.4426,-221.2824 3.4425,-5.2625 3.4426,-0.2767 3.4426,-1.9623 3.4426,-16.952 3.4426,0.4605 3.4425,3.5899 3.4426,25.7037 3.4426,223.746 3.4426,-8.1428 3.4425,12.1851 3.4426,10.0845 3.4426,-3.9543 3.4425,-11.3115 3.4426,17.5475 3.4426,-0.7982 3.4426,-11.3408 3.4426,-208.8231 3.4425,-26.5556 3.4426,-15.5448 3.4426,10.3762 3.4426,13.0828 3.4426,14.7198 3.4425,200.4937 3.4426,5.1209 3.4426,4.4114 3.4426,-199.9716 3.4425,-12.2003 3.4426,-11.2615 3.4426,-7.5005 3.4425,-6.5581 3.4427,33.1526 3.4425,209.5127 3.4426,34.7608 3.4426,39.3322 3.4425,20.5334 3.4426,5.44 h 3.4426 l 3.4426,-18.6047 h 3.4426 l 3.4425,-34.2026 3.4426,-19.4531 3.4426,-36.475 3.4426,-218.8035 3.4426,-11.6961 3.4425,-2.9522 3.4426,-19.5994 3.4425,-2.3003 3.4427,13.4144 3.4425,11.101 3.4426,5.6156 3.4426,224.1479 3.4425,17.216 3.4427,25.5527 3.4425,4.2332 3.4426,-8.8956 3.4426,-36.7699 3.4425,-203.4066 3.4426,-40.3957 3.4426,-12.1256 3.4426,1.0708 3.4426,14.8881 3.4425,0.2682 3.4426,0.098 3.4426,-1.4629 3.4426,-1.0725 3.4425,1.2737 3.4426,16.4267 3.4426,-0.7092 3.4426,10.6756 3.4426,12.0583 3.4425,-18.5112 3.4426,3.698 3.4426,13.5368 3.4425,198.9635 3.4427,-191.6676 3.4425,213.8494 3.4426,-18.1473 3.4426,-195.0879 3.4425,-20.3578 3.4427,-1.7652 3.4425,-7.8791 3.4426,15.5291 3.4425,217.8776 3.4426,24.8773 3.4426,18.1346 3.4426,-1.9433 3.4426,1.5692 3.4425,-13.522 3.4426,-14.0412 3.4426,-12.4014 3.4426,7.1853 3.4426,13.5173 3.4425,11.5758 3.4426,23.6982 3.4426,26.4419 3.4425,10.9555 3.4427,6.2796 3.4425,-3.5181 3.4426,-3.6739 3.4426,-7.6693 3.4425,-14.1704 3.4426,-31.068 3.4426,-25.6683 3.4426,-12.2387 3.4425,-214.2185 3.4426,-21.6883 3.4426,-8.5291 3.4426,7.3131 3.4426,11.2 3.4425,224.4842 3.4426,40.1543 3.4426,10.2389 3.4426,-8.2255 3.4426,-33.6465 3.4425,-226.2821 3.4426,-40.2447 3.4426,-8.8801 3.4425,0.8637 3.4426,1.5101 3.4426,-0.3384 3.4426,0.2254 3.4425,11.7838 3.4427,1.5803 3.4425,-2.47 3.4426,24.1122 3.4425,5.1646 3.4426,-11.1988 3.4427,11.3878 3.4425,10.6212 3.4426,-24.4973 3.4425,0.7213 3.4426,8.8374 3.4427,-18.965 3.4425,-7.2617 3.4426,10.9645 3.4425,4.2002 3.4426,16.173 3.4426,2.0269 3.4426,6.1374 3.4426,-9.2586 3.4425,-10.5965 3.4426,-27.7137 3.4425,-1.8601 3.4426,5.5351 3.4427,-1.6792 3.4425,14.2143 3.4426,7.4879 3.4425,25.8668 3.4426,204.3752 3.4427,42.2842 3.4425,-4.0117 3.4426,7.3046 3.4425,4.7449 3.4426,-5.1288 3.4426,-26.0698 3.4426,4.2896 3.4426,15.1763 3.4425,-28.319 3.4426,-15.8637 3.4426,21.857 3.4425,-1.6885 3.4427,-214.2943 3.4425,213.1366 3.4426,-5.9363 3.4425,-216.6415 3.4426,-12.4095 3.4427,5.0494 3.4425,-24.4834 3.4426,-1.2979 3.4425,-6.9884 3.4426,14.1443 3.4427,7.3366 3.4425,-3.5146 3.4426,4.6454 3.4425,17.9517 3.4426,-15.1815 3.4426,-13.8363 3.4425,2.4436 3.4427,-9.6072 3.4425,-12.7805 3.4426,4.8325 3.4426,-0.8662 3.4425,10.6668 3.4427,29.0395 3.4425,-6.1239 3.4426,-5.2524 3.4425,2.5329 3.4426,11.9279 3.4427,1.4864 3.4425,2.7364 3.4426,0.6233 3.4425,-1.7264 3.4426,-26.9472 3.4426,-28.333 3.4426,8.582 3.4426,-0.7487 3.4425,-1.5372 3.4426,1.8594 3.4426,3.4596 3.4425,-12.4494 3.4427,2.5621 3.4425,1.2332 3.4426,23.1372 3.4426,-5.4992 3.4425,27.6795 3.4427,-2.5164 3.4425,0.687 3.4426,-15.6713 3.4425,225.3472 3.4426,-201.2809 3.4427,223.5713 3.4425,0.1923 3.4426,3.8579 3.4425,-226.3057 3.4426,-2.8904 3.4426,-32.2737 3.4425,10.9287 3.4427,17.2654 3.4425,-0.326 3.4426,-2.6736 3.4426,-0.5765 3.4425,-12.6325 3.4427,-16.6279 3.4425,3.0417 3.4426,-3.4946 3.4426,8.6399 3.4425,17.012 3.4427,-3.5178 3.4425,20.2129 3.4426,204.0742 3.4425,18.6182 3.4426,-6.0189 3.4426,-2.7658 3.4426,-206.6454 3.4426,-20.53 3.4425,-31.2924 3.4426,18.0263 3.4426,20.9501 3.4425,-1.4982 3.4427,0.1607 3.4425,14.8889 L 1435,85.4704"
       style="fill:none;fill-rule:evenodd;stroke:#ff00ff;stroke-width:1.0667"
       id="path6684" />
  </g>
</svg>
